<?xml version="1.0" encoding="iso-8859-1"?>
<!-- Generator: Adobe Illustrator 19.0.0, SVG Export Plug-In . SVG Version: 6.00 Build 0)  -->
<svg version="1.1" id="Capa_1" xmlns="http://www.w3.org/2000/svg" xmlns:xlink="http://www.w3.org/1999/xlink" x="0px" y="0px"
	 viewBox="0 0 512.002 512.002" style="enable-background:new 0 0 512.002 512.002;" xml:space="preserve">
<path style="fill:#303C42;" d="M405.334,64.002h-21.333V41.961c0-23.306-19.721-42.193-42.667-41.958
	c-3.278,0.034-6.147,0.488-9.531,1.344L104.383,64.233c-22.452,1.216-40.382,19.688-40.382,42.436v362.667
	c0,23.531,19.135,42.667,42.667,42.667h298.667c23.531,0,42.667-19.135,42.667-42.667V106.669
	C448.001,83.138,428.866,64.002,405.334,64.002z"/>
<path style="fill:#F2F2F2;" d="M337.282,21.961c12.448-3.177,25.385,6.906,25.385,20v22.042H185.259L337.282,21.961z"/>
<polygon style="opacity:0.1;enable-background:new    ;" points="223.957,53.3 185.259,64.002 362.668,64.002 362.668,53.3 "/>
<path style="fill:#F2F2F2;" d="M426.668,469.336c0,11.76-9.573,21.333-21.333,21.333H106.668c-11.76,0-21.333-9.573-21.333-21.333
	V106.669c0-11.76,9.573-21.333,21.333-21.333h298.667c11.76,0,21.333,9.573,21.333,21.333V469.336z"/>
<linearGradient id="SVGID_1_" gradientUnits="userSpaceOnUse" x1="-34.6811" y1="634.9534" x2="-25.25" y2="625.5244" gradientTransform="matrix(21.3333 0 0 -21.3333 996.3112 13791.6914)">
	<stop  offset="0" style="stop-color:#000000;stop-opacity:0.1"/>
	<stop  offset="1" style="stop-color:#000000;stop-opacity:0"/>
</linearGradient>
<path style="fill:url(#SVGID_1_);" d="M343.838,167.807c18.292,20.699,29.496,47.799,29.496,77.529
	c0,64.698-52.635,117.333-117.333,117.333c-32.057,0-61.129-12.949-82.327-33.858l161.858,161.858h69.802
	c11.76,0,21.333-9.573,21.333-21.333V250.636L343.838,167.807z"/>
<g>
	<path style="fill:#303C42;" d="M360.241,384.596l-213.365-0.031c-5.885,0-10.667,4.771-10.667,10.667
		c0,5.885,4.771,10.667,10.667,10.667l213.365,0.031c5.885,0,10.667-4.771,10.667-10.667
		C370.907,389.377,366.137,384.596,360.241,384.596z"/>
	<path style="fill:#303C42;" d="M317.543,427.263h-128c-5.896,0-10.667,4.771-10.667,10.667c0,5.896,4.771,10.667,10.667,10.667h128
		c5.896,0,10.667-4.771,10.667-10.667C328.209,432.033,323.439,427.263,317.543,427.263z"/>
	<circle style="fill:#303C42;" cx="256.001" cy="245.334" r="117.333"/>
</g>
<g>
	<path style="fill:#80DEEA;" d="M350.923,234.669h-41.807c-1.181-29.056-7.182-57.952-17.599-78.342
		C323.686,169.211,346.911,199.006,350.923,234.669z"/>
	<path style="fill:#80DEEA;" d="M256.001,341.336c-12.221,0-29.409-33.047-31.573-85.333h63.146
		C285.41,308.289,268.222,341.336,256.001,341.336z"/>
	<path style="fill:#80DEEA;" d="M224.428,234.669c2.164-52.286,19.352-85.333,31.573-85.333c12.221,0,29.409,33.047,31.573,85.333
		H224.428z"/>
	<path style="fill:#80DEEA;" d="M220.485,156.326c-10.417,20.391-16.418,49.286-17.599,78.342h-41.807
		C165.091,199.006,188.316,169.211,220.485,156.326z"/>
	<path style="fill:#80DEEA;" d="M161.079,256.002h41.807c1.181,29.056,7.182,57.952,17.599,78.342
		C188.316,321.461,165.091,291.665,161.079,256.002z"/>
	<path style="fill:#80DEEA;" d="M291.517,334.345c10.417-20.391,16.418-49.286,17.599-78.342h41.807
		C346.911,291.665,323.686,321.461,291.517,334.345z"/>
</g>
<linearGradient id="SVGID_2_" gradientUnits="userSpaceOnUse" x1="-45.2119" y1="638.6878" x2="-23.5766" y2="628.601" gradientTransform="matrix(21.3333 0 0 -21.3333 996.3112 13791.6914)">
	<stop  offset="0" style="stop-color:#FFFFFF;stop-opacity:0.2"/>
	<stop  offset="1" style="stop-color:#FFFFFF;stop-opacity:0"/>
</linearGradient>
<path style="fill:url(#SVGID_2_);" d="M405.334,64.002h-21.333V41.961c0-23.306-19.721-42.193-42.667-41.958
	c-3.278,0.034-6.147,0.488-9.531,1.344L104.383,64.233c-22.452,1.216-40.382,19.688-40.382,42.436v362.667
	c0,23.531,19.135,42.667,42.667,42.667h298.667c23.531,0,42.667-19.135,42.667-42.667V106.669
	C448.001,83.138,428.866,64.002,405.334,64.002z"/>
<g>
</g>
<g>
</g>
<g>
</g>
<g>
</g>
<g>
</g>
<g>
</g>
<g>
</g>
<g>
</g>
<g>
</g>
<g>
</g>
<g>
</g>
<g>
</g>
<g>
</g>
<g>
</g>
<g>
</g>
</svg>
